<svg width="172" height="21" viewBox="0 0 172 21" fill="none" xmlns="http://www.w3.org/2000/svg">
<g clip-path="url(#clip0_231_1496)">
<path d="M43.6017 6.11466H48.9316V19.8673H54.8582V6.11466H60.1881V1.07953H43.5619V6.11466H43.6017Z" fill="white"/>
<path d="M71.604 8.25681L69.3368 7.69318C68.1038 7.39257 67.5071 6.97924 67.5071 6.45318C67.5071 5.70167 68.422 5.28834 70.0925 5.28834C72.1609 5.28834 74.3485 6.03985 76.2578 7.39257V2.05684C74.0701 1.00472 71.8427 0.516235 69.4959 0.516235C64.6035 0.516235 61.5408 2.84592 61.5408 6.56591C61.5408 9.42166 63.2511 11.2629 66.7514 12.1647L69.6152 12.8786C70.7687 13.1416 71.3256 13.5925 71.3256 14.2313C71.3256 15.1707 70.3312 15.6592 68.5015 15.6592C66.115 15.6592 63.6489 14.795 61.6601 13.2544V18.5901C63.9671 19.8301 66.4332 20.4313 69.0981 20.4313C74.1099 20.4313 77.2522 17.9889 77.2522 14.081C77.2919 11.1501 75.3827 9.1962 71.604 8.25681Z" fill="white"/>
<path d="M35.8855 12.4274C35.8855 14.0055 34.5729 15.2455 32.9023 15.2455C31.2317 15.2455 29.9191 14.0055 29.9191 12.4274V1.07953H23.9926V12.014C23.9926 16.9364 27.6917 20.431 32.9023 20.431C38.1129 20.431 41.812 16.9364 41.812 12.014V1.07953H35.8855V12.4274Z" fill="white"/>
<path d="M11.3839 0.516052C5.37773 0.516052 0.684204 4.87482 0.684204 10.4736C0.684204 16.0724 5.37773 20.4311 11.3839 20.4311C17.39 20.4311 22.0835 16.0724 22.0835 10.4736C22.0835 4.87482 17.39 0.516052 11.3839 0.516052ZM11.3839 15.2457C8.79844 15.2457 6.76988 13.1415 6.76988 10.4736C6.76988 7.80572 8.79844 5.70149 11.3839 5.70149C13.9693 5.70149 15.9978 7.80572 15.9978 10.4736C15.9978 13.1415 13.9693 15.2457 11.3839 15.2457Z" fill="white"/>
<path d="M163.684 14.8322V1.07953H157.758V19.8673H171.719V14.8322H163.684Z" fill="white"/>
<path d="M145.15 0.516235C142.684 0.516235 140.934 1.07987 138.786 2.54532C137.473 3.33441 136.837 3.59744 136.28 3.59744C135.604 3.59744 134.967 3.33441 133.774 2.54532C131.626 1.07987 129.836 0.516235 127.41 0.516235C121.404 0.516235 116.71 4.87501 116.71 10.4738C116.71 16.0725 121.324 20.4313 127.33 20.4313C129.757 20.4313 131.507 19.8677 133.695 18.4022C134.888 17.5756 135.524 17.3501 136.2 17.3501C136.956 17.3501 137.553 17.6131 138.706 18.4022C140.854 19.8677 142.644 20.4313 145.07 20.4313C151.076 20.4313 155.77 16.0725 155.77 10.4738C155.77 4.87501 151.116 0.516235 145.15 0.516235ZM145.11 15.0956C143.718 15.0956 141.65 14.3065 140.098 13.2168C138.627 12.1647 137.473 11.7138 136.24 11.7138C135.007 11.7138 133.854 12.1647 132.382 13.2168C130.831 14.3065 128.762 15.058 127.37 15.058C124.785 15.058 122.756 13.0289 122.756 10.4362C122.756 7.84348 124.825 5.8144 127.37 5.8144C128.762 5.8144 130.831 6.56591 132.382 7.6556C133.893 8.70772 135.087 9.15863 136.24 9.15863C137.473 9.15863 138.627 8.70772 140.098 7.6556C141.65 6.56591 143.718 5.77682 145.11 5.77682C147.696 5.77682 149.724 7.8059 149.724 10.3986C149.724 12.9913 147.696 15.0956 145.11 15.0956Z" fill="white"/>
<path d="M108.755 7.80556H102.828V1.07953H96.9017V19.8673H102.828V12.8407H108.755V19.8673H114.681V1.07953H108.755V7.80556Z" fill="white"/>
<path d="M78.485 10.4738C78.485 16.298 82.9001 20.4313 89.1846 20.4313C90.8154 20.4313 92.8838 20.0931 94.5146 19.5671V14.2313C93.1622 14.9077 91.6905 15.2459 90.0597 15.2459C86.8379 15.2459 84.5707 13.2919 84.5707 10.4738C84.5707 7.6556 86.8379 5.70167 90.0597 5.70167C91.6109 5.70167 93.0826 6.07743 94.5146 6.75379V1.45563C92.9633 0.891991 90.9348 0.516235 89.1846 0.516235C82.9001 0.516235 78.485 4.64955 78.485 10.4738Z" fill="white"/>
</g>
<defs>
<clipPath id="clip0_231_1496">
<rect width="171.035" height="19.9151" fill="white" transform="translate(0.684204 0.516052)"/>
</clipPath>
</defs>
</svg>
